<?xml version="1.0" encoding="utf-8"?>
<!-- Generator: Adobe Illustrator 16.0.0, SVG Export Plug-In . SVG Version: 6.00 Build 0)  -->
<!DOCTYPE svg PUBLIC "-//W3C//DTD SVG 1.1//EN" "http://www.w3.org/Graphics/SVG/1.1/DTD/svg11.dtd">
<svg version="1.1" id="Layer_1" xmlns="http://www.w3.org/2000/svg" xmlns:xlink="http://www.w3.org/1999/xlink" x="0px" y="0px"
	 width="32px" height="32px" viewBox="0 0 32 32" enable-background="new 0 0 32 32" xml:space="preserve">
<g id="icomoon-ignore">
</g>
<path fill="#010156" d="M28.591,27.273l-7.263-7.27c1.46-1.756,2.339-4.01,2.339-6.471c0-5.595-4.535-10.129-10.129-10.129
	c-5.594,0-10.129,4.535-10.129,10.129c0,5.594,4.536,10.129,10.129,10.129c2.462,0,4.716-0.879,6.471-2.339l7.263,7.264
	L28.591,27.273z M4.475,13.538c0-4.997,4.065-9.063,9.063-9.063c4.997,0,9.063,4.066,9.063,9.063s-4.066,9.063-9.063,9.063
	C8.54,22.602,4.475,18.535,4.475,13.538z"/>
</svg>
